<svg xmlns="http://www.w3.org/2000/svg" width="32" height="32" viewBox="0 0 32 32">
  <g fill="#161616" transform="translate(1)">
    <path d="M4.62222222,6.89777778 L4.62222222,28.5155556 C4.62222222,29.1439329 5.13162268,29.6533333 5.76,29.6533333 L23.9644444,29.6533333 C24.5928218,29.6533333 25.1022222,29.1439329 25.1022222,28.5155556 L25.1022222,6.89777778 L4.62222222,6.89777778 Z M3.48444444,4.62222222 L26.24,4.62222222 C26.8683773,4.62222222 27.3777778,5.13162268 27.3777778,5.76 L27.3777778,28.5155556 C27.3777778,30.4006875 25.8495764,31.9288889 23.9644444,31.9288889 L5.76,31.9288889 C3.87486805,31.9288889 2.34666667,30.4006875 2.34666667,28.5155556 L2.34666667,5.76 C2.34666667,5.13162268 2.85606713,4.62222222 3.48444444,4.62222222 Z"/>
    <path d="M1.20888889 6.89777778C.580511574 6.89777778.0711111111 6.38837732.0711111111 5.76.0711111111 5.13162268.580511574 4.62222222 1.20888889 4.62222222L28.5155556 4.62222222C29.1439329 4.62222222 29.6533333 5.13162268 29.6533333 5.76 29.6533333 6.38837732 29.1439329 6.89777778 28.5155556 6.89777778L1.20888889 6.89777778zM11.4488889 23.9644444C11.4488889 24.5928218 10.9394884 25.1022222 10.3111111 25.1022222 9.6827338 25.1022222 9.17333333 24.5928218 9.17333333 23.9644444L9.17333333 12.5866667C9.17333333 11.9582894 9.6827338 11.4488889 10.3111111 11.4488889 10.9394884 11.4488889 11.4488889 11.9582894 11.4488889 12.5866667L11.4488889 23.9644444zM16 23.9644444C16 24.5928218 15.4905995 25.1022222 14.8622222 25.1022222 14.2338449 25.1022222 13.7244444 24.5928218 13.7244444 23.9644444L13.7244444 12.5866667C13.7244444 11.9582894 14.2338449 11.4488889 14.8622222 11.4488889 15.4905995 11.4488889 16 11.9582894 16 12.5866667L16 23.9644444zM20.5511111 23.9644444C20.5511111 24.5928218 20.0417106 25.1022222 19.4133333 25.1022222 18.784956 25.1022222 18.2755556 24.5928218 18.2755556 23.9644444L18.2755556 12.5866667C18.2755556 11.9582894 18.784956 11.4488889 19.4133333 11.4488889 20.0417106 11.4488889 20.5511111 11.9582894 20.5511111 12.5866667L20.5511111 23.9644444z"/>
    <path d="M11.4488889,2.34666667 L11.4488889,4.62222222 L18.2755556,4.62222222 L18.2755556,2.34666667 L11.4488889,2.34666667 Z M10.3111111,0.0711111111 L19.4133333,0.0711111111 C20.0417106,0.0711111111 20.5511111,0.580511574 20.5511111,1.20888889 L20.5511111,5.76 C20.5511111,6.38837732 20.0417106,6.89777778 19.4133333,6.89777778 L10.3111111,6.89777778 C9.6827338,6.89777778 9.17333333,6.38837732 9.17333333,5.76 L9.17333333,1.20888889 C9.17333333,0.580511574 9.6827338,0.0711111111 10.3111111,0.0711111111 Z"/>
  </g>
</svg>
