<svg xmlns="http://www.w3.org/2000/svg" width="17" height="18" viewBox="0 0 17 18">
  <g fill="#161616" opacity=".5" transform="translate(1 1)">
    <path d="M2.2383084,2.62176272 C2.44720304,2.44115928 2.76295371,2.46409374 2.94355725,2.67298826 C3.12416079,2.88188278 3.10122632,3.19763326 2.89233168,3.3782367 C1.3819527,4.6840607 0.5,6.56335322 0.5,8.5844497 C0.5,12.4025231 3.63274723,15.4999925 7.5,15.4999925 C11.3672528,15.4999925 14.5,12.4025231 14.5,8.5844497 C14.5,6.61067955 13.6591654,4.77132865 12.209757,3.46824399 C12.0044046,3.2836228 11.9875988,2.96748688 12.1722201,2.76213465 C12.3568414,2.55678242 12.6729775,2.53997659 12.8783298,2.72459777 C14.536172,4.215074 15.5,6.32347648 15.5,8.5844497 C15.5,12.9573583 11.9170185,16.4999919 7.5,16.4999919 C3.08298152,16.4999919 -0.5,12.9573583 -0.5,8.5844497 C-0.5,6.26925214 0.510877452,4.11524271 2.2383084,2.62176272 Z"/>
    <path d="M7,0.4 C7,0.123857625 7.22385763,-0.1 7.5,-0.1 C7.77614237,-0.1 8,0.123857625 8,0.4 L8,7.6 C8,7.87614237 7.77614237,8.1 7.5,8.1 C7.22385763,8.1 7,7.87614237 7,7.6 L7,0.4 Z"/>
  </g>
</svg>
