<svg xmlns="http://www.w3.org/2000/svg" width="32" height="32" viewBox="0 0 32 32">
  <g fill="#B9B9B9">
    <path d="M5.4766168,4.40483197 C5.89440608,4.0436251 6.52590741,4.089494 6.8871145,4.50728305 C7.24832158,4.92507209 7.20245265,5.55657305 6.78466336,5.91777993 C3.76390541,8.52942793 2,12.288013 2,16.3302059 C2,23.9663528 8.26549446,30.1612915 16,30.1612915 C23.7345055,30.1612915 30,23.9663528 30,16.3302059 C30,12.3826656 28.3183308,8.70396382 25.419514,6.09779452 C25.0088093,5.72855214 24.9751976,5.0962803 25.3444402,4.68557583 C25.7136828,4.27487137 26.345955,4.2412597 26.7566597,4.61050208 C30.0723441,7.59145452 32,11.8082595 32,16.3302059 C32,25.0760232 24.834037,32.1612903 16,32.1612903 C7.16596305,32.1612903 0,25.0760232 0,16.3302059 C0,11.6998108 2.0217549,7.39179195 5.4766168,4.40483197 Z"/>
    <path d="M15.4516129,1.00708104 C15.4516129,0.450885539 15.9137706,0 16.483871,0 C17.0539714,0 17.516129,0.450885539 17.516129,1.00708104 L17.516129,15.509048 C17.516129,16.0652435 17.0539714,16.516129 16.483871,16.516129 C15.9137706,16.516129 15.4516129,16.0652435 15.4516129,15.509048 L15.4516129,1.00708104 Z"/>
  </g>
</svg>
