<svg xmlns="http://www.w3.org/2000/svg" width="32" height="32" viewBox="0 0 32 32">
  <g fill="#B9B9B9">
    <path d="M28.9306782,0.7721148 C29.4860905,0.216702474 30.3865918,0.216702474 30.9420041,0.7721148 C31.4974165,1.32752713 31.4974165,2.22802843 30.9420041,2.78344076 L2.78344076,30.9420041 C2.22802843,31.4974165 1.32752713,31.4974165 0.7721148,30.9420041 C0.216702474,30.3865918 0.216702474,29.4860905 0.7721148,28.9306782 L28.9306782,0.7721148 Z"/>
    <path d="M30.9420041,28.9306782 C31.4974165,29.4860905 31.4974165,30.3865918 30.9420041,30.9420041 C30.3865918,31.4974165 29.4860905,31.4974165 28.9306782,30.9420041 L0.7721148,2.78344076 C0.216702474,2.22802843 0.216702474,1.32752713 0.7721148,0.7721148 C1.32752713,0.216702474 2.22802843,0.216702474 2.78344076,0.7721148 L30.9420041,28.9306782 Z"/>
  </g>
</svg>
