<svg xmlns="http://www.w3.org/2000/svg" width="32" height="32" viewBox="0 0 32 32">
  <path fill="#161616" d="M19.0413219,1.13465061 C19.0413219,0.504412656 18.5304131,-0.0064961475 17.9001751,-0.0064961475 L12.3212354,-0.0064961475 C11.6909975,-0.0064961475 11.1800887,0.504412656 11.1800887,1.13465061 L11.1800887,26.693476 L15.1571088,33.1702507 L19.0413219,26.6996597 L19.0413219,1.13465061 Z M12.3212354,-2.28878965 L17.9001751,-2.28878965 C19.790889,-2.28878965 21.3236154,-0.756063241 21.3236154,1.13465061 L21.3236154,27.0158688 C21.3236154,27.2227765 21.2673605,27.4257911 21.1608699,27.6031906 L16.1465601,35.956375 C15.7058825,36.6904862 14.6437436,36.6958239 14.19571,35.9661789 L9.06649307,27.6129945 C8.95618661,27.4333549 8.89779518,27.2266717 8.89779518,27.0158688 L8.89779518,1.13465061 C8.89779518,-0.756063241 10.4305216,-2.28878965 12.3212354,-2.28878965 Z" transform="rotate(45 15.11 17.11)"/>
</svg>
