<svg xmlns="http://www.w3.org/2000/svg" width="32" height="32" viewBox="0 0 32 32">
  <g fill="#161616">
    <path d="M15,1.45454545 C15,0.651222182 15.6512222,-6.45947942e-16 16.4545455,0 C17.2578687,6.45947942e-16 17.9090909,0.651222182 17.9090909,1.45454545 L17.9090909,30.5454545 C17.9090909,31.3487778 17.2578687,32 16.4545455,32 C15.6512222,32 15,31.3487778 15,30.5454545 L15,1.45454545 Z"/>
    <path d="M30.5454545,15 C31.3487778,15 32,15.6715729 32,16.5 C32,17.3284271 31.3487778,18 30.5454545,18 L1.45454545,18 C0.651222182,18 0,17.3284271 0,16.5 C0,15.6715729 0.651222182,15 1.45454545,15 L30.5454545,15 Z"/>
  </g>
</svg>
