<svg xmlns="http://www.w3.org/2000/svg" width="32" height="32" viewBox="0 0 32 32">
  <g fill="#FFBC27">
    <path d="M16,31.4771242 C7.45222034,31.4771242 0.522875817,24.5477797 0.522875817,16 C0.522875817,7.45222034 7.45222034,0.522875817 16,0.522875817 C24.5477797,0.522875817 31.4771242,7.45222034 31.4771242,16 C31.4771242,24.5477797 24.5477797,31.4771242 16,31.4771242 Z M16,30.6405229 C24.0857375,30.6405229 30.6405229,24.0857375 30.6405229,16 C30.6405229,7.91426249 24.0857375,1.35947712 16,1.35947712 C7.91426249,1.35947712 1.35947712,7.91426249 1.35947712,16 C1.35947712,24.0857375 7.91426249,30.6405229 16,30.6405229 Z"/>
    <path d="M16,10.5128797 C16,10.2818586 16.1872796,10.094579 16.4183007,10.094579 C16.6493217,10.094579 16.8366013,10.2818586 16.8366013,10.5128797 L16.8366013,22.3237216 C16.8366013,22.5547427 16.6493217,22.7420223 16.4183007,22.7420223 C16.1872796,22.7420223 16,22.5547427 16,22.3237216 L16,10.5128797 Z"/>
    <path d="M22.3237216,16 C22.5547427,16 22.7420223,16.1872796 22.7420223,16.4183007 C22.7420223,16.6493217 22.5547427,16.8366013 22.3237216,16.8366013 L10.5128797,16.8366013 C10.2818586,16.8366013 10.094579,16.6493217 10.094579,16.4183007 C10.094579,16.1872796 10.2818586,16 10.5128797,16 L22.3237216,16 Z"/>
  </g>
</svg>
